<?xml version="1.0" encoding="UTF-8"?>
<!DOCTYPE svg PUBLIC "-//W3C//DTD SVG 1.1//EN" "http://www.w3.org/Graphics/SVG/1.1/DTD/svg11.dtd">
<svg xmlns="http://www.w3.org/2000/svg" version="1.1" width="225px" height="225px" style="shape-rendering:geometricPrecision; text-rendering:geometricPrecision; image-rendering:optimizeQuality; fill-rule:evenodd; clip-rule:evenodd" xmlns:xlink="http://www.w3.org/1999/xlink">
<g><path style="opacity:1" fill="#101010" d="M 139.5,-0.5 C 143.5,-0.5 147.5,-0.5 151.5,-0.5C 155.053,1.03529 158.386,3.03529 161.5,5.5C 161.932,6.70951 162.599,7.70951 163.5,8.5C 164.441,10.0495 165.107,11.7162 165.5,13.5C 165.232,15.099 165.566,16.4324 166.5,17.5C 168.086,28.4876 163.753,36.3209 153.5,41C 144.312,43.868 136.312,42.0347 129.5,35.5C 127.109,33.3852 125.776,30.7186 125.5,27.5C 125.737,26.209 125.404,25.209 124.5,24.5C 124.167,24.5 123.833,24.5 123.5,24.5C 122.968,12.5929 128.301,4.25955 139.5,-0.5 Z"/></g>
<g><path style="opacity:0.012" fill="#fefffe" d="M 161.5,4.5 C 162.833,5.16667 162.833,5.16667 161.5,4.5 Z"/></g>
<g><path style="opacity:0.012" fill="#fefffe" d="M 163.5,7.5 C 164.833,8.16667 164.833,8.16667 163.5,7.5 Z"/></g>
<g><path style="opacity:0.047" fill="#e9eae9" d="M 119.5,17.5 C 118.833,16.1667 118.833,16.1667 119.5,17.5 Z"/></g>
<g><path style="opacity:0.886" fill="#7c7c7c" d="M 165.5,13.5 C 166.249,14.531 166.915,15.6976 167.5,17C 167.272,17.3988 166.938,17.5654 166.5,17.5C 165.566,16.4324 165.232,15.099 165.5,13.5 Z"/></g>
<g><path style="opacity:1" fill="#1d1d1d" d="M 119.5,18.5 C 121.06,20.1561 122.06,22.1561 122.5,24.5C 122.5,26.1667 122.5,27.8333 122.5,29.5C 122.886,37.6129 122.219,45.6129 120.5,53.5C 119.662,53.8417 119.328,54.5084 119.5,55.5C 118.167,56.1667 117.167,57.1667 116.5,58.5C 115.833,58.5 115.5,58.8333 115.5,59.5C 110.176,62.6475 104.509,63.3141 98.5,61.5C 98.5,61.1667 98.5,60.8333 98.5,60.5C 100.361,59.1581 102.361,58.1581 104.5,57.5C 105.167,57.5 105.5,57.1667 105.5,56.5C 106.79,55.9423 107.623,54.9423 108,53.5C 109.262,45.8872 109.762,38.2205 109.5,30.5C 110.833,30.1667 110.833,29.8333 109.5,29.5C 111.046,26.3683 113.046,23.7017 115.5,21.5C 116.5,21.1667 117.167,20.5 117.5,19.5C 117.842,18.6618 118.508,18.3284 119.5,18.5 Z"/></g>
<g><path style="opacity:0.012" fill="#cecece" d="M 117.5,19.5 C 117.167,20.5 116.5,21.1667 115.5,21.5C 114.34,19.7973 115.007,19.1307 117.5,19.5 Z"/></g>
<g><path style="opacity:0.38" fill="#909090" d="M 122.5,24.5 C 122.06,22.1561 121.06,20.1561 119.5,18.5C 119.5,18.1667 119.5,17.8333 119.5,17.5C 120.15,17.1961 120.817,16.8627 121.5,16.5C 122.48,19.0865 122.813,21.7531 122.5,24.5 Z"/></g>
<g><path style="opacity:1" fill="#111111" d="M 101.5,26.5 C 101.842,27.3382 102.508,27.6716 103.5,27.5C 104.609,27.5569 105.609,27.8902 106.5,28.5C 107.403,31.3915 107.736,34.3915 107.5,37.5C 107.991,39.9962 108.324,42.4962 108.5,45C 108.077,48.4778 107.077,51.6444 105.5,54.5C 104.167,55.1667 103.167,56.1667 102.5,57.5C 101.127,57.3433 99.7932,57.51 98.5,58C 97.4019,58.7697 97.4019,59.603 98.5,60.5C 97.1667,60.8333 97.1667,61.1667 98.5,61.5C 100.491,63.0606 102.824,64.0606 105.5,64.5C 108.955,63.8043 112.288,62.8043 115.5,61.5C 116.833,60.8333 117.833,59.8333 118.5,58.5C 119.11,57.609 119.443,56.609 119.5,55.5C 120.338,55.1583 120.672,54.4916 120.5,53.5C 122.267,51.2084 123.267,48.5418 123.5,45.5C 123.94,43.1561 124.94,41.1561 126.5,39.5C 128.434,40.1103 130.101,41.1103 131.5,42.5C 131.842,43.3382 132.508,43.6716 133.5,43.5C 134.167,43.8333 134.833,44.1667 135.5,44.5C 135.833,45.5 136.5,46.1667 137.5,46.5C 139.714,46.2907 141.381,47.124 142.5,49C 142.754,54.0786 144.42,58.5786 147.5,62.5C 147.833,63.1667 148.167,63.8333 148.5,64.5C 147.71,65.4013 146.71,66.0679 145.5,66.5C 144.508,66.3284 143.842,66.6618 143.5,67.5C 143.167,68.1667 142.833,68.8333 142.5,69.5C 141.833,69.5 141.167,69.5 140.5,69.5C 139.508,69.6716 138.842,69.3382 138.5,68.5C 138.5,68.1667 138.5,67.8333 138.5,67.5C 139.167,67.5 139.5,67.1667 139.5,66.5C 139.5,64.8333 139.5,63.1667 139.5,61.5C 139.573,59.9731 138.906,58.9731 137.5,58.5C 137.5,58.1667 137.5,57.8333 137.5,57.5C 137.027,56.0937 136.027,55.427 134.5,55.5C 134.167,55.5 133.833,55.5 133.5,55.5C 130.66,54.0829 127.993,54.4162 125.5,56.5C 125.5,56.8333 125.5,57.1667 125.5,57.5C 124.833,57.5 124.5,57.8333 124.5,58.5C 123.5,58.8333 122.833,59.5 122.5,60.5C 120.75,61.6594 119.75,63.326 119.5,65.5C 118.559,67.0495 117.893,68.7162 117.5,70.5C 116.833,70.5 116.5,70.8333 116.5,71.5C 115.11,72.8993 114.11,74.5659 113.5,76.5C 111.992,78.1815 110.992,80.1815 110.5,82.5C 108.336,84.822 106.669,87.4887 105.5,90.5C 102.821,93.5175 101.821,96.8508 102.5,100.5C 102.328,101.492 102.662,102.158 103.5,102.5C 103.5,103.167 103.5,103.833 103.5,104.5C 103.833,105.5 104.5,106.167 105.5,106.5C 107.199,106.62 108.865,106.954 110.5,107.5C 112.171,107.332 113.504,106.665 114.5,105.5C 116.674,105.25 118.341,104.25 119.5,102.5C 120.167,102.5 120.833,102.5 121.5,102.5C 123.027,102.573 124.027,101.906 124.5,100.5C 126.027,100.573 127.027,99.9063 127.5,98.5C 127.5,98.1667 127.5,97.8333 127.5,97.5C 128.492,97.6716 129.158,97.3382 129.5,96.5C 131.027,96.573 132.027,95.9063 132.5,94.5C 134.284,94.1075 135.95,93.4408 137.5,92.5C 138.492,92.6716 139.158,92.3382 139.5,91.5C 140.29,90.5987 141.29,89.9321 142.5,89.5C 142.567,90.9587 142.234,92.2921 141.5,93.5C 140.596,94.209 140.263,95.209 140.5,96.5C 139.224,104.044 137.89,111.544 136.5,119C 136.692,122.759 136.692,126.425 136.5,130C 137.044,130.717 137.711,131.217 138.5,131.5C 141.195,134.526 143.862,137.526 146.5,140.5C 146.833,141.5 147.5,142.167 148.5,142.5C 150.833,145.5 153.5,148.167 156.5,150.5C 156.557,151.609 156.89,152.609 157.5,153.5C 157.263,154.791 157.596,155.791 158.5,156.5C 159.425,160.79 160.091,165.124 160.5,169.5C 160.322,173.122 160.989,176.456 162.5,179.5C 162.5,180.167 162.5,180.833 162.5,181.5C 162.549,185.078 163.215,188.411 164.5,191.5C 165.341,193.379 165.675,195.379 165.5,197.5C 165.232,199.099 165.566,200.432 166.5,201.5C 167.265,204.096 167.599,206.763 167.5,209.5C 167.5,212.5 167.5,215.5 167.5,218.5C 166.527,221.135 164.86,223.135 162.5,224.5C 159.5,224.5 156.5,224.5 153.5,224.5C 152.205,223.512 150.872,222.512 149.5,221.5C 149.068,220.29 148.401,219.29 147.5,218.5C 145.781,210.571 144.448,202.571 143.5,194.5C 143.795,192.265 143.461,190.265 142.5,188.5C 140.607,180.449 138.94,172.449 137.5,164.5C 134.954,159.281 131.287,154.948 126.5,151.5C 126.167,150.5 125.5,149.833 124.5,149.5C 124.5,148.833 124.167,148.5 123.5,148.5C 123.5,147.833 123.167,147.5 122.5,147.5C 122.5,146.833 122.167,146.5 121.5,146.5C 121.5,145.833 121.167,145.5 120.5,145.5C 120.443,144.391 120.11,143.391 119.5,142.5C 119.167,141.5 118.5,140.833 117.5,140.5C 116.833,140.167 116.167,139.833 115.5,139.5C 115.167,138.5 114.5,137.833 113.5,137.5C 113.5,136.833 113.167,136.5 112.5,136.5C 112.167,135.5 111.5,134.833 110.5,134.5C 110.5,133.833 110.167,133.5 109.5,133.5C 109.672,132.508 109.338,131.842 108.5,131.5C 100.346,132.76 92.1791,132.76 84,131.5C 79.2726,127.94 75.4393,123.607 72.5,118.5C 72.6716,117.508 72.3382,116.842 71.5,116.5C 70.8333,115.833 70.1667,115.167 69.5,114.5C 69.5,114.167 69.5,113.833 69.5,113.5C 69.6716,112.508 69.3382,111.842 68.5,111.5C 64.6656,103.741 63.6656,95.7405 65.5,87.5C 66.9238,85.4855 67.5905,83.1522 67.5,80.5C 67.5,79.8333 67.5,79.1667 67.5,78.5C 68.4013,77.7095 69.0679,76.7095 69.5,75.5C 70.3382,75.1583 70.6716,74.4916 70.5,73.5C 70.6068,71.6214 70.1068,71.2881 69,72.5C 68.0053,71.9341 67.172,71.2674 66.5,70.5C 66.0269,69.0937 65.0269,68.427 63.5,68.5C 61.5154,68.1414 60.8487,67.308 61.5,66C 60.9558,65.2828 60.2891,64.7828 59.5,64.5C 54.2692,55.2217 54.2692,45.8884 59.5,36.5C 60.1667,35.8333 60.8333,35.1667 61.5,34.5C 62.9063,34.0269 63.573,33.0269 63.5,31.5C 63.8333,30.5 64.5,29.8333 65.5,29.5C 66.5,29.1667 67.1667,28.5 67.5,27.5C 78.5621,21.2617 89.8954,20.9283 101.5,26.5 Z M 86.5,37.5 C 87.5511,38.2223 88.2178,39.2223 88.5,40.5C 85.8127,40.3359 83.146,40.5026 80.5,41C 79.944,41.3826 79.6107,41.8826 79.5,42.5C 77.9731,42.427 76.9731,43.0937 76.5,44.5C 73.4399,48.0086 72.4399,52.0086 73.5,56.5C 72.2848,57.779 72.6182,58.779 74.5,59.5C 75.4884,60.795 76.4884,62.1283 77.5,63.5C 69.686,59.4014 67.3527,53.0681 70.5,44.5C 71.9063,44.0269 72.573,43.0269 72.5,41.5C 76.5061,38.0741 81.1728,36.7407 86.5,37.5 Z M 90.5,39.5 C 90.8333,40.1667 91.1667,40.8333 91.5,41.5C 90.5,41.5 89.5,41.5 88.5,41.5C 88.5,41.1667 88.5,40.8333 88.5,40.5C 89.1667,40.1667 89.8333,39.8333 90.5,39.5 Z M 91.5,41.5 C 92.1667,41.5 92.8333,41.5 93.5,41.5C 93.2144,43.9327 92.5477,43.9327 91.5,41.5 Z M 91.5,47.5 C 91.5,48.8333 92.1667,49.5 93.5,49.5C 94.5691,52.408 94.7358,55.408 94,58.5C 93.6174,59.056 93.1174,59.3893 92.5,59.5C 91.0425,61.0108 89.2092,62.0108 87,62.5C 80.5664,60.9731 78.2331,56.9731 80,50.5C 83.1359,46.6745 86.9692,45.6745 91.5,47.5 Z M 119.5,55.5 C 119.443,56.609 119.11,57.609 118.5,58.5C 117.833,58.5 117.167,58.5 116.5,58.5C 117.167,57.1667 118.167,56.1667 119.5,55.5 Z M 133.5,55.5 C 133.833,55.5 134.167,55.5 134.5,55.5C 134.833,56.1667 135.167,56.8333 135.5,57.5C 134.833,57.5 134.167,57.5 133.5,57.5C 132.494,56.6043 132.494,55.9377 133.5,55.5 Z M 102.5,57.5 C 103.167,57.5 103.833,57.5 104.5,57.5C 102.361,58.1581 100.361,59.1581 98.5,60.5C 97.4019,59.603 97.4019,58.7697 98.5,58C 99.7932,57.51 101.127,57.3433 102.5,57.5 Z M 124.5,58.5 C 124.5,59.1667 124.5,59.8333 124.5,60.5C 123.833,60.5 123.167,60.5 122.5,60.5C 122.833,59.5 123.5,58.8333 124.5,58.5 Z M 115.5,59.5 C 115.5,60.1667 115.5,60.8333 115.5,61.5C 112.288,62.8043 108.955,63.8043 105.5,64.5C 102.824,64.0606 100.491,63.0606 98.5,61.5C 104.509,63.3141 110.176,62.6475 115.5,59.5 Z M 138.5,61.5 C 138.833,61.5 139.167,61.5 139.5,61.5C 139.5,63.1667 139.5,64.8333 139.5,66.5C 138.833,66.5 138.167,66.5 137.5,66.5C 138.233,64.7497 138.566,63.083 138.5,61.5 Z M 105.5,90.5 C 105.5,91.1667 105.5,91.8333 105.5,92.5C 104.108,95.0067 103.108,97.6733 102.5,100.5C 101.821,96.8508 102.821,93.5175 105.5,90.5 Z M 137.5,90.5 C 137.5,91.1667 137.5,91.8333 137.5,92.5C 135.95,93.4408 134.284,94.1075 132.5,94.5C 133.945,92.9373 135.611,91.604 137.5,90.5 Z M 132.5,94.5 C 132.027,95.9063 131.027,96.573 129.5,96.5C 129.973,95.0937 130.973,94.427 132.5,94.5 Z M 122.5,100.5 C 122.167,101.167 121.833,101.833 121.5,102.5C 120.833,102.5 120.167,102.5 119.5,102.5C 119.973,101.094 120.973,100.427 122.5,100.5 Z M 103.5,102.5 C 104.5,102.833 105.167,103.5 105.5,104.5C 104.833,104.5 104.167,104.5 103.5,104.5C 103.5,103.833 103.5,103.167 103.5,102.5 Z M 119.5,102.5 C 118.341,104.25 116.674,105.25 114.5,105.5C 115.659,103.75 117.326,102.75 119.5,102.5 Z M 105.5,104.5 C 108.391,105.403 111.391,105.736 114.5,105.5C 113.504,106.665 112.171,107.332 110.5,107.5C 108.865,106.954 107.199,106.62 105.5,106.5C 105.5,105.833 105.5,105.167 105.5,104.5 Z"/></g>
<g><path style="opacity:0.039" fill="#dcdcdc" d="M 103.5,27.5 C 102.508,27.6716 101.842,27.3382 101.5,26.5C 102.925,24.9689 103.591,25.3023 103.5,27.5 Z"/></g>
<g><path style="opacity:0.031" fill="#e2e2e2" d="M 67.5,27.5 C 67.1667,28.5 66.5,29.1667 65.5,29.5C 65.5,28.1667 66.1667,27.5 67.5,27.5 Z"/></g>
<g><path style="opacity:0.29" fill="#c9c9c9" d="M 122.5,24.5 C 122.833,24.5 123.167,24.5 123.5,24.5C 123.833,27.1667 124.167,27.1667 124.5,24.5C 125.404,25.209 125.737,26.209 125.5,27.5C 124.167,27.5 123.5,28.1667 123.5,29.5C 123.167,29.5 122.833,29.5 122.5,29.5C 122.5,27.8333 122.5,26.1667 122.5,24.5 Z"/></g>
<g><path style="opacity:0.016" fill="#fefffe" d="M 123.5,29.5 C 124.833,30.1667 124.833,30.1667 123.5,29.5 Z"/></g>
<g><path style="opacity:0.553" fill="#8a8a8a" d="M 63.5,31.5 C 63.573,33.0269 62.9063,34.0269 61.5,34.5C 61.427,32.9731 62.0937,31.9731 63.5,31.5 Z"/></g>
<g><path style="opacity:0.018" fill="#d5d5d5" d="M 106.5,28.5 C 107.609,28.5569 108.609,28.8902 109.5,29.5C 109.5,29.8333 109.5,30.1667 109.5,30.5C 108.833,32.8333 108.167,35.1667 107.5,37.5C 107.736,34.3915 107.403,31.3915 106.5,28.5 Z"/></g>
<g><path style="opacity:0.031" fill="#dedfde" d="M 59.5,36.5 C 58.8333,35.1667 58.8333,35.1667 59.5,36.5 Z"/></g>
<g><path style="opacity:0.027" fill="#dadbda" d="M 129.5,35.5 C 128.833,36.1667 128.833,36.1667 129.5,35.5 Z"/></g>
<g><path style="opacity:0.945" fill="#7a7a7a" d="M 86.5,37.5 C 88.4832,37.1568 89.8166,37.8235 90.5,39.5C 89.8333,39.8333 89.1667,40.1667 88.5,40.5C 88.2178,39.2223 87.5511,38.2223 86.5,37.5 Z"/></g>
<g><path style="opacity:0.639" fill="#9c9c9c" d="M 90.5,39.5 C 92.0269,39.427 93.0269,40.0937 93.5,41.5C 92.8333,41.5 92.1667,41.5 91.5,41.5C 91.1667,40.8333 90.8333,40.1667 90.5,39.5 Z"/></g>
<g><path style="opacity:0.116" fill="#d2d2d2" d="M 88.5,40.5 C 88.5,40.8333 88.5,41.1667 88.5,41.5C 85.4299,41.3677 82.4299,41.701 79.5,42.5C 79.6107,41.8826 79.944,41.3826 80.5,41C 83.146,40.5026 85.8127,40.3359 88.5,40.5 Z"/></g>
<g><path style="opacity:0.016" fill="#dcdcdc" d="M 133.5,43.5 C 132.508,43.6716 131.842,43.3382 131.5,42.5C 132.925,40.9689 133.591,41.3023 133.5,43.5 Z"/></g>
<g><path style="opacity:0.024" fill="#a7a7a7" d="M 72.5,41.5 C 72.573,43.0269 71.9063,44.0269 70.5,44.5C 70.427,42.9731 71.0937,41.9731 72.5,41.5 Z"/></g>
<g><path style="opacity:0.376" fill="#989898" d="M 126.5,39.5 C 124.94,41.1561 123.94,43.1561 123.5,45.5C 123.125,42.6035 123.625,39.9368 125,37.5C 125.717,38.0442 126.217,38.7109 126.5,39.5 Z"/></g>
<g><path style="opacity:0.004" fill="#fefffe" d="M 135.5,42.5 C 136.833,43.1667 136.833,43.1667 135.5,42.5 Z"/></g>
<g><path style="opacity:0.729" fill="#8d8d8d" d="M 79.5,42.5 C 79.0269,43.9063 78.0269,44.573 76.5,44.5C 76.9731,43.0937 77.9731,42.427 79.5,42.5 Z"/></g>
<g><path style="opacity:0.012" fill="#e2e2e2" d="M 135.5,44.5 C 137.993,44.1307 138.66,44.7973 137.5,46.5C 136.5,46.1667 135.833,45.5 135.5,44.5 Z"/></g>
<g><path style="opacity:0.027" fill="#fbfbfb" d="M 91.5,47.5 C 92.5,47.8333 93.1667,48.5 93.5,49.5C 92.1667,49.5 91.5,48.8333 91.5,47.5 Z"/></g>
<g><path style="opacity:0.106" fill="#c4c4c4" d="M 133.5,55.5 C 132.494,55.9377 132.494,56.6043 133.5,57.5C 131.833,57.5 130.167,57.5 128.5,57.5C 127.791,56.596 126.791,56.2627 125.5,56.5C 127.993,54.4162 130.66,54.0829 133.5,55.5 Z"/></g>
<g><path style="opacity:0.012" fill="#fafafa" d="M 73.5,56.5 C 74.1098,57.391 74.4431,58.391 74.5,59.5C 72.6182,58.779 72.2848,57.779 73.5,56.5 Z"/></g>
<g><path style="opacity:0.02" fill="#dedede" d="M 105.5,54.5 C 105.5,55.1667 105.5,55.8333 105.5,56.5C 104.833,56.5 104.5,56.8333 104.5,57.5C 103.833,57.5 103.167,57.5 102.5,57.5C 103.167,56.1667 104.167,55.1667 105.5,54.5 Z"/></g>
<g><path style="opacity:0.569" fill="#828282" d="M 134.5,55.5 C 136.027,55.427 137.027,56.0937 137.5,57.5C 136.833,57.5 136.167,57.5 135.5,57.5C 135.167,56.8333 134.833,56.1667 134.5,55.5 Z"/></g>
<g><path style="opacity:1" fill="#131313" d="M 127.5,57.5 C 127.833,57.5 128.167,57.5 128.5,57.5C 130.167,57.5 131.833,57.5 133.5,57.5C 134.167,57.5 134.833,57.5 135.5,57.5C 135.5,57.8333 135.5,58.1667 135.5,58.5C 135.5,59.1667 135.833,59.5 136.5,59.5C 136.5,60.1667 136.833,60.5 137.5,60.5C 137.5,61.1667 137.833,61.5 138.5,61.5C 138.566,63.083 138.233,64.7497 137.5,66.5C 136.662,66.8417 136.328,67.5084 136.5,68.5C 135.42,70.9962 134.086,73.3295 132.5,75.5C 130.915,76.0024 130.415,77.0024 131,78.5C 131.717,77.9558 132.217,77.2891 132.5,76.5C 133.872,75.4884 135.205,74.4884 136.5,73.5C 137.167,73.5 137.5,73.1667 137.5,72.5C 139.674,72.2503 141.341,71.2503 142.5,69.5C 143.167,69.5 143.833,69.5 144.5,69.5C 145.167,69.5 145.5,69.1667 145.5,68.5C 146.605,67.3995 147.938,66.7329 149.5,66.5C 151.5,66.5 153.5,66.5 155.5,66.5C 155.833,66.5 156.167,66.5 156.5,66.5C 156.833,67.5 157.5,68.1667 158.5,68.5C 160.969,74.2784 159.302,78.2784 153.5,80.5C 151.973,80.427 150.973,81.0937 150.5,82.5C 146.801,85.3497 142.801,87.683 138.5,89.5C 137.833,89.5 137.5,89.8333 137.5,90.5C 135.611,91.604 133.945,92.9373 132.5,94.5C 130.973,94.427 129.973,95.0937 129.5,96.5C 128.508,96.3284 127.842,96.6618 127.5,97.5C 126.508,97.3284 125.842,97.6618 125.5,98.5C 124.833,98.5 124.5,98.8333 124.5,99.5C 123.508,99.3284 122.842,99.6618 122.5,100.5C 120.973,100.427 119.973,101.094 119.5,102.5C 117.326,102.75 115.659,103.75 114.5,105.5C 111.391,105.736 108.391,105.403 105.5,104.5C 105.167,103.5 104.5,102.833 103.5,102.5C 103.672,101.508 103.338,100.842 102.5,100.5C 103.108,97.6733 104.108,95.0067 105.5,92.5C 106.906,92.0269 107.573,91.0269 107.5,89.5C 108.773,87.2872 109.773,84.9538 110.5,82.5C 111.974,81.5637 112.974,80.2303 113.5,78.5C 114.5,78.1667 115.167,77.5 115.5,76.5C 115.557,75.391 115.89,74.391 116.5,73.5C 117.906,73.0269 118.573,72.0269 118.5,70.5C 119.441,68.9505 120.107,67.2838 120.5,65.5C 121.167,65.5 121.5,65.1667 121.5,64.5C 122.338,64.1583 122.672,63.4916 122.5,62.5C 123.167,62.5 123.5,62.1667 123.5,61.5C 124.167,61.5 124.5,61.1667 124.5,60.5C 125.833,59.8333 126.833,58.8333 127.5,57.5 Z M 143.5,67.5 C 144.338,67.8417 144.672,68.5084 144.5,69.5C 143.833,69.5 143.167,69.5 142.5,69.5C 142.833,68.8333 143.167,68.1667 143.5,67.5 Z M 136.5,68.5 C 136.833,68.5 137.167,68.5 137.5,68.5C 137.167,69.8333 136.833,71.1667 136.5,72.5C 135.167,72.8333 135.167,73.1667 136.5,73.5C 135.205,74.4884 133.872,75.4884 132.5,76.5C 132.5,76.1667 132.5,75.8333 132.5,75.5C 134.086,73.3295 135.42,70.9962 136.5,68.5 Z M 140.5,69.5 C 141.167,69.5 141.833,69.5 142.5,69.5C 141.341,71.2503 139.674,72.2503 137.5,72.5C 138.306,71.2719 139.306,70.2719 140.5,69.5 Z"/></g>
<g><path style="opacity:0.016" fill="#e5e5e5" d="M 135.5,58.5 C 136.167,58.5 136.833,58.5 137.5,58.5C 138.906,58.9731 139.573,59.9731 139.5,61.5C 139.167,61.5 138.833,61.5 138.5,61.5C 137.833,61.5 137.5,61.1667 137.5,60.5C 136.833,60.5 136.5,60.1667 136.5,59.5C 135.833,59.5 135.5,59.1667 135.5,58.5 Z"/></g>
<g><path style="opacity:0.298" fill="#aeaeae" d="M 116.5,58.5 C 117.167,58.5 117.833,58.5 118.5,58.5C 117.833,59.8333 116.833,60.8333 115.5,61.5C 115.5,60.8333 115.5,60.1667 115.5,59.5C 116.167,59.5 116.5,59.1667 116.5,58.5 Z"/></g>
<g><path style="opacity:0.447" fill="#9d9d9d" d="M 125.5,57.5 C 126.167,57.5 126.833,57.5 127.5,57.5C 126.833,58.8333 125.833,59.8333 124.5,60.5C 124.5,59.8333 124.5,59.1667 124.5,58.5C 125.167,58.5 125.5,58.1667 125.5,57.5 Z"/></g>
<g><path style="opacity:0.024" fill="#e3e3e3" d="M 147.5,62.5 C 149.424,62.7107 149.757,63.3774 148.5,64.5C 148.167,63.8333 147.833,63.1667 147.5,62.5 Z"/></g>
<g><path style="opacity:0.004" fill="#fefffe" d="M 152.5,63.5 C 153.833,64.1667 153.833,64.1667 152.5,63.5 Z"/></g>
<g><path style="opacity:0.004" fill="#fefffe" d="M 59.5,64.5 C 58.8333,65.1667 58.8333,65.1667 59.5,64.5 Z"/></g>
<g><path style="opacity:0.027" fill="#b5b5b5" d="M 79.5,63.5 C 80.3764,63.3691 81.0431,63.7025 81.5,64.5C 80.3864,65.7759 79.3864,65.7759 78.5,64.5C 79.1667,64.5 79.5,64.1667 79.5,63.5 Z"/></g>
<g><path style="opacity:0.035" fill="#d9d9d9" d="M 122.5,60.5 C 123.167,60.5 123.833,60.5 124.5,60.5C 124.5,61.1667 124.167,61.5 123.5,61.5C 122.833,61.5 122.5,61.8333 122.5,62.5C 121.662,62.8417 121.328,63.5084 121.5,64.5C 120.833,64.5 120.5,64.8333 120.5,65.5C 120.167,65.5 119.833,65.5 119.5,65.5C 119.75,63.326 120.75,61.6594 122.5,60.5 Z"/></g>
<g><path style="opacity:0.584" fill="#8e8e8e" d="M 155.5,66.5 C 153.5,66.5 151.5,66.5 149.5,66.5C 149.783,65.7109 150.283,65.0442 151,64.5C 152.622,65.0989 154.122,65.7656 155.5,66.5 Z"/></g>
<g><path style="opacity:0.02" fill="#f0f0f0" d="M 137.5,66.5 C 138.167,66.5 138.833,66.5 139.5,66.5C 139.5,67.1667 139.167,67.5 138.5,67.5C 137.833,67.5 137.5,67.8333 137.5,68.5C 137.167,68.5 136.833,68.5 136.5,68.5C 136.328,67.5084 136.662,66.8417 137.5,66.5 Z"/></g>
<g><path style="opacity:0.051" fill="#cecece" d="M 143.5,67.5 C 143.842,66.6618 144.508,66.3284 145.5,66.5C 145.5,67.1667 145.5,67.8333 145.5,68.5C 145.5,69.1667 145.167,69.5 144.5,69.5C 144.672,68.5084 144.338,67.8417 143.5,67.5 Z"/></g>
<g><path style="opacity:0.047" fill="#ededed" d="M 158.5,68.5 C 157.5,68.1667 156.833,67.5 156.5,66.5C 156.435,66.0618 156.601,65.7284 157,65.5C 158.039,66.2438 158.539,67.2438 158.5,68.5 Z"/></g>
<g><path style="opacity:0.349" fill="#adadad" d="M 63.5,68.5 C 65.0269,68.427 66.0269,69.0937 66.5,70.5C 64.9731,70.573 63.9731,69.9063 63.5,68.5 Z"/></g>
<g><path style="opacity:0.824" fill="#8f8f8f" d="M 137.5,68.5 C 137.833,68.5 138.167,68.5 138.5,68.5C 138.842,69.3382 139.508,69.6716 140.5,69.5C 139.306,70.2719 138.306,71.2719 137.5,72.5C 137.167,72.5 136.833,72.5 136.5,72.5C 136.833,71.1667 137.167,69.8333 137.5,68.5 Z"/></g>
<g><path style="opacity:0.133" fill="#cacaca" d="M 117.5,70.5 C 117.833,70.5 118.167,70.5 118.5,70.5C 118.573,72.0269 117.906,73.0269 116.5,73.5C 116.5,72.8333 116.5,72.1667 116.5,71.5C 117.167,71.5 117.5,71.1667 117.5,70.5 Z"/></g>
<g><path style="opacity:0.008" fill="#e3e3e3" d="M 70.5,73.5 C 70.6716,74.4916 70.3382,75.1583 69.5,75.5C 67.9689,74.0755 68.3023,73.4088 70.5,73.5 Z"/></g>
<g><path style="opacity:0.188" fill="#b3b3b3" d="M 132.5,75.5 C 132.5,75.8333 132.5,76.1667 132.5,76.5C 132.217,77.2891 131.717,77.9558 131,78.5C 130.415,77.0024 130.915,76.0024 132.5,75.5 Z"/></g>
<g><path style="opacity:0.031" fill="#e9e9e9" d="M 67.5,78.5 C 66.475,78.1034 66.3083,77.4368 67,76.5C 67.4643,77.0944 67.631,77.7611 67.5,78.5 Z"/></g>
<g><path style="opacity:0.051" fill="#dbdbdb" d="M 113.5,76.5 C 114.167,76.5 114.833,76.5 115.5,76.5C 115.167,77.5 114.5,78.1667 113.5,78.5C 113.5,77.8333 113.5,77.1667 113.5,76.5 Z"/></g>
<g><path style="opacity:0.016" fill="#e1e1e1" d="M 153.5,80.5 C 153.027,81.9063 152.027,82.573 150.5,82.5C 150.973,81.0937 151.973,80.427 153.5,80.5 Z"/></g>
<g><path style="opacity:0.98" fill="#656565" d="M 67.5,80.5 C 67.5905,83.1522 66.9238,85.4855 65.5,87.5C 65.1706,84.7718 65.8372,82.4385 67.5,80.5 Z"/></g>
<g><path style="opacity:0.027" fill="#dadbda" d="M 142.5,88.5 C 143.833,89.1667 143.833,89.1667 142.5,88.5 Z"/></g>
<g><path style="opacity:0.031" fill="#d2d2d2" d="M 138.5,89.5 C 138.328,90.4916 138.662,91.1583 139.5,91.5C 139.158,92.3382 138.492,92.6716 137.5,92.5C 137.5,91.8333 137.5,91.1667 137.5,90.5C 137.5,89.8333 137.833,89.5 138.5,89.5 Z"/></g>
<g><path style="opacity:0.196" fill="#bebebe" d="M 107.5,89.5 C 107.573,91.0269 106.906,92.0269 105.5,92.5C 105.5,91.8333 105.5,91.1667 105.5,90.5C 106.167,90.1667 106.833,89.8333 107.5,89.5 Z"/></g>
<g><path style="opacity:0.2" fill="#cdcdcd" d="M 141.5,93.5 C 142.815,94.8946 142.481,95.8946 140.5,96.5C 140.263,95.209 140.596,94.209 141.5,93.5 Z"/></g>
<g><path style="opacity:0.576" fill="#a6a6a6" d="M 125.5,98.5 C 126.167,98.5 126.833,98.5 127.5,98.5C 127.027,99.9063 126.027,100.573 124.5,100.5C 124.5,100.167 124.5,99.8333 124.5,99.5C 125.167,99.5 125.5,99.1667 125.5,98.5 Z"/></g>
<g><path style="opacity:0.714" fill="#888888" d="M 122.5,100.5 C 123.167,100.5 123.833,100.5 124.5,100.5C 124.027,101.906 123.027,102.573 121.5,102.5C 121.833,101.833 122.167,101.167 122.5,100.5 Z"/></g>
<g><path style="opacity:0.008" fill="#d1d1d1" d="M 103.5,104.5 C 104.167,104.5 104.833,104.5 105.5,104.5C 105.5,105.167 105.5,105.833 105.5,106.5C 104.5,106.167 103.833,105.5 103.5,104.5 Z"/></g>
<g><path style="opacity:0.271" fill="#d7d7d7" d="M 68.5,111.5 C 69.3382,111.842 69.6716,112.508 69.5,113.5C 67.8946,112.994 67.5613,112.327 68.5,111.5 Z"/></g>
<g><path style="opacity:0.027" fill="#dadbda" d="M 69.5,114.5 C 68.8333,115.167 68.8333,115.167 69.5,114.5 Z"/></g>
<g><path style="opacity:0.035" fill="#cbcbcb" d="M 71.5,116.5 C 72.3382,116.842 72.6716,117.508 72.5,118.5C 70.3023,118.591 69.9689,117.925 71.5,116.5 Z"/></g>
<g><path style="opacity:0.027" fill="#dadbda" d="M 138.5,130.5 C 139.833,131.167 139.833,131.167 138.5,130.5 Z"/></g>
<g><path style="opacity:0.039" fill="#ebebeb" d="M 108.5,131.5 C 108.5,132.167 108.5,132.833 108.5,133.5C 107.662,133.842 107.328,134.508 107.5,135.5C 106.761,135.631 106.094,135.464 105.5,135C 105.974,133.271 106.974,132.105 108.5,131.5 Z"/></g>
<g><path style="opacity:1" fill="#111111" d="M 110.5,136.5 C 110.833,136.5 111.167,136.5 111.5,136.5C 111.427,138.027 112.094,139.027 113.5,139.5C 113.833,140.5 114.5,141.167 115.5,141.5C 116.167,141.833 116.833,142.167 117.5,142.5C 118.167,143.833 119.167,144.833 120.5,145.5C 121.167,145.5 121.5,145.833 121.5,146.5C 122.167,146.5 122.5,146.833 122.5,147.5C 122.5,147.833 122.5,148.167 122.5,148.5C 122.427,150.027 123.094,151.027 124.5,151.5C 125.167,151.5 125.833,151.5 126.5,151.5C 128.167,154.167 129.833,156.833 131.5,159.5C 131.5,162.5 131.5,165.5 131.5,168.5C 129.225,175.661 126.558,182.661 123.5,189.5C 122.069,190.78 121.402,192.447 121.5,194.5C 120.892,197.327 119.892,199.993 118.5,202.5C 117.603,203.598 116.77,203.598 116,202.5C 115.805,203.819 115.972,205.153 116.5,206.5C 116.095,209.715 115.095,212.715 113.5,215.5C 112.662,215.842 112.328,216.508 112.5,217.5C 112.573,219.027 111.906,220.027 110.5,220.5C 109.5,220.833 108.833,221.5 108.5,222.5C 107.29,222.932 106.29,223.599 105.5,224.5C 103.833,224.5 102.167,224.5 100.5,224.5C 95.0936,222.411 92.427,218.411 92.5,212.5C 93.3665,210.098 94.6999,207.932 96.5,206C 95.7476,205.329 95.4142,204.496 95.5,203.5C 100.313,190.532 105.146,177.532 110,164.5C 109.506,157.2 109.006,149.867 108.5,142.5C 108.337,140.143 108.503,137.81 109,135.5C 109.383,136.056 109.883,136.389 110.5,136.5 Z"/></g>
<g><path style="opacity:0.745" fill="#696969" d="M 108.5,133.5 C 108.833,133.5 109.167,133.5 109.5,133.5C 110.167,133.5 110.5,133.833 110.5,134.5C 110.5,135.167 110.5,135.833 110.5,136.5C 109.883,136.389 109.383,136.056 109,135.5C 108.503,137.81 108.337,140.143 108.5,142.5C 107.532,140.393 107.198,138.059 107.5,135.5C 107.328,134.508 107.662,133.842 108.5,133.5 Z"/></g>
<g><path style="opacity:0.529" fill="#adadad" d="M 111.5,136.5 C 111.833,136.5 112.167,136.5 112.5,136.5C 113.167,136.5 113.5,136.833 113.5,137.5C 113.5,138.167 113.5,138.833 113.5,139.5C 112.094,139.027 111.427,138.027 111.5,136.5 Z"/></g>
<g><path style="opacity:0.012" fill="#cccccc" d="M 113.5,139.5 C 114.167,139.5 114.833,139.5 115.5,139.5C 115.5,140.167 115.5,140.833 115.5,141.5C 114.5,141.167 113.833,140.5 113.5,139.5 Z"/></g>
<g><path style="opacity:0.008" fill="#fefffe" d="M 146.5,139.5 C 147.833,140.167 147.833,140.167 146.5,139.5 Z"/></g>
<g><path style="opacity:0.035" fill="#cccccc" d="M 117.5,140.5 C 118.5,140.833 119.167,141.5 119.5,142.5C 118.833,142.5 118.167,142.5 117.5,142.5C 117.5,141.833 117.5,141.167 117.5,140.5 Z"/></g>
<g><path style="opacity:0.008" fill="#fefffe" d="M 148.5,141.5 C 149.833,142.167 149.833,142.167 148.5,141.5 Z"/></g>
<g><path style="opacity:0.686" fill="#919191" d="M 122.5,148.5 C 122.833,148.5 123.167,148.5 123.5,148.5C 124.167,148.5 124.5,148.833 124.5,149.5C 124.5,150.167 124.5,150.833 124.5,151.5C 123.094,151.027 122.427,150.027 122.5,148.5 Z"/></g>
<g><path style="opacity:0.004" fill="#fefffe" d="M 156.5,149.5 C 157.833,150.167 157.833,150.167 156.5,149.5 Z"/></g>
<g><path style="opacity:0.078" fill="#e8e8e8" d="M 157.5,153.5 C 158.267,154.172 158.934,155.005 159.5,156C 159.272,156.399 158.938,156.565 158.5,156.5C 157.596,155.791 157.263,154.791 157.5,153.5 Z"/></g>
<g><path style="opacity:0.404" fill="#c4c4c4" d="M 131.5,159.5 C 133.433,162.678 133.433,165.678 131.5,168.5C 131.5,165.5 131.5,162.5 131.5,159.5 Z"/></g>
<g><path style="opacity:0.027" fill="#dadbda" d="M 137.5,164.5 C 136.833,165.167 136.833,165.167 137.5,164.5 Z"/></g>
<g><path style="opacity:0.388" fill="#b8b8b8" d="M 160.5,169.5 C 161.785,172.589 162.451,175.922 162.5,179.5C 160.989,176.456 160.322,173.122 160.5,169.5 Z"/></g>
<g><path style="opacity:0.384" fill="#a7a7a7" d="M 162.5,181.5 C 164.011,184.544 164.678,187.878 164.5,191.5C 163.215,188.411 162.549,185.078 162.5,181.5 Z"/></g>
<g><path style="opacity:0.114" fill="#c8c8c8" d="M 142.5,188.5 C 143.461,190.265 143.795,192.265 143.5,194.5C 142.733,193.828 142.066,192.995 141.5,192C 142.337,190.989 142.67,189.822 142.5,188.5 Z"/></g>
<g><path style="opacity:0.302" fill="#bcbcbc" d="M 123.5,189.5 C 123.598,191.553 122.931,193.22 121.5,194.5C 121.402,192.447 122.069,190.78 123.5,189.5 Z"/></g>
<g><path style="opacity:0.322" fill="#d8d8d8" d="M 165.5,197.5 C 167.109,198.665 167.443,199.999 166.5,201.5C 165.566,200.432 165.232,199.099 165.5,197.5 Z"/></g>
<g><path style="opacity:1" fill="#5b5b5b" d="M 118.5,202.5 C 118.771,204.38 118.104,205.713 116.5,206.5C 115.972,205.153 115.805,203.819 116,202.5C 116.77,203.598 117.603,203.598 118.5,202.5 Z"/></g>
<g><path style="opacity:1" fill="#666666" d="M 95.5,203.5 C 95.4142,204.496 95.7476,205.329 96.5,206C 94.6999,207.932 93.3665,210.098 92.5,212.5C 92.5275,209.084 93.5275,206.084 95.5,203.5 Z"/></g>
<g><path style="opacity:0.004" fill="#fefffe" d="M 117.5,207.5 C 118.833,208.167 118.833,208.167 117.5,207.5 Z"/></g>
<g><path style="opacity:0.118" fill="#d5d5d5" d="M 113.5,215.5 C 114.439,216.327 114.105,216.994 112.5,217.5C 112.328,216.508 112.662,215.842 113.5,215.5 Z"/></g>
<g><path style="opacity:0.161" fill="#c1c1c1" d="M 167.5,209.5 C 168.216,211.556 168.883,213.723 169.5,216C 168.934,216.995 168.267,217.828 167.5,218.5C 167.5,215.5 167.5,212.5 167.5,209.5 Z"/></g>
<g><path style="opacity:0.02" fill="#fefffe" d="M 147.5,218.5 C 146.833,219.167 146.833,219.167 147.5,218.5 Z"/></g>
<g><path style="opacity:0.012" fill="#e6e6e6" d="M 110.5,220.5 C 111.66,222.203 110.993,222.869 108.5,222.5C 108.833,221.5 109.5,220.833 110.5,220.5 Z"/></g>
<g><path style="opacity:0.012" fill="#fefffe" d="M 149.5,221.5 C 148.833,222.167 148.833,222.167 149.5,221.5 Z"/></g>
</svg>
